<?xml version="1.0" encoding="iso-8859-1"?>
<!-- Generator: Adobe Illustrator 16.0.0, SVG Export Plug-In . SVG Version: 6.00 Build 0)  -->
<!DOCTYPE svg PUBLIC "-//W3C//DTD SVG 1.1//EN" "http://www.w3.org/Graphics/SVG/1.1/DTD/svg11.dtd">
<svg version="1.1" id="Capa_1" xmlns="http://www.w3.org/2000/svg" xmlns:xlink="http://www.w3.org/1999/xlink" x="0px" y="0px"
	 width="478.408px" height="478.408px" viewBox="0 0 478.408 478.408" style="enable-background:new 0 0 478.408 478.408;"
	 xml:space="preserve">
<g>
	<g>
		<path d="M167.162,132.159c-5.713,15.459-11.426,30.918-17.14,46.379c13.235,11.164,27.443,18.645,44.573,21.93
			c5.713-15.459,11.426-30.918,17.139-46.375C194.604,150.793,180.398,143.333,167.162,132.159z"/>
		<path d="M370.448,152.5c5.239-14.178,10.478-28.352,15.717-42.527c-17.443-2.814-34.473-2.797-52.072-1.719
			c-5.238,14.176-10.479,28.353-15.717,42.527C335.977,149.702,353.006,149.688,370.448,152.5z"/>
		<path d="M117.168,267.438c13.231,11.17,27.444,18.641,44.572,21.932c5.239-14.176,10.478-28.352,15.717-42.526
			c-17.131-3.291-31.337-10.763-44.573-21.933C127.645,239.086,122.406,253.263,117.168,267.438z"/>
		<path d="M365.026,309.708c5.238-14.174,10.478-28.35,15.717-42.524c-13.237-11.168-27.441-18.638-44.572-21.933
			c-5.239,14.177-10.479,28.353-15.718,42.527C337.583,291.067,351.792,298.54,365.026,309.708z"/>
		<path d="M213.814,291.089c18.209-1.472,36.357-3.56,54.567-5.029c5.238-14.176,10.478-28.354,15.717-42.529
			c-18.209,1.473-36.357,3.562-54.567,5.031C224.292,262.735,219.053,276.911,213.814,291.089z"/>
		<path d="M353.311,198.875c17.129,3.293,31.336,10.762,44.57,21.932c5.716-15.457,11.429-30.918,17.141-46.377
			c-13.238-11.168-27.442-18.635-44.573-21.93C364.736,167.959,359.022,183.418,353.311,198.875z"/>
		<path d="M194.596,200.468c-5.712,15.457-11.427,30.918-17.139,46.375c17.442,2.813,34.475,2.797,52.073,1.719
			c5.714-15.459,11.427-30.918,17.14-46.377C229.069,203.265,212.039,203.282,194.596,200.468z"/>
		<path d="M263.809,155.809c5.239-14.176,10.479-28.352,15.717-42.525c-17.6,1.08-34.632,1.096-52.073-1.717
			c-5.239,14.174-10.478,28.35-15.717,42.525C229.18,156.903,246.206,156.886,263.809,155.809z"/>
		<path d="M301.237,197.157c-5.713,15.457-11.427,30.916-17.14,46.373c17.601-1.076,34.63-1.094,52.072,1.721
			c5.713-15.459,11.426-30.916,17.141-46.375C335.866,196.062,318.838,196.081,301.237,197.157z"/>
		<path d="M301.237,197.157c5.713-15.459,11.426-30.918,17.139-46.375c-18.21,1.471-36.358,3.557-54.567,5.027
			c-5.713,15.457-11.426,30.918-17.139,46.375C264.879,200.716,283.026,198.627,301.237,197.157z"/>
		<path d="M396.705,65.534c-9.065-1.562-18.66-2.32-29.334-2.32c-15.253,0-30.415,1.56-45.078,3.068
			c-2.908,0.299-5.809,0.598-8.7,0.883l-3.806,0.377c-13.428,1.336-27.313,2.717-40.715,2.717
			c-11.688,0.001-21.813-1.052-30.958-3.217c-23.964-5.672-41.767-20.959-56.028-48.111c-2.295-4.371-6.95-6.979-11.875-6.661
			c-4.927,0.319-9.204,3.509-10.916,8.14L0.778,449.328c-2.393,6.476,0.917,13.665,7.392,16.058
			c1.429,0.528,2.892,0.779,4.332,0.779c5.083,0,9.861-3.124,11.727-8.171L84.23,295.64c17.737,18.512,43.149,32.83,59.108,36.605
			c11.058,2.616,23.07,3.889,36.724,3.889c14.66,0,29.187-1.445,43.235-2.845l3.731-0.37c2.909-0.286,5.828-0.588,8.754-0.89
			c14.049-1.446,28.575-2.941,42.559-2.941c9.24,0,17.451,0.641,25.103,1.959c27.344,4.71,47.165,20.396,62.379,49.364
			c2.295,4.37,6.943,6.972,11.875,6.661c4.927-0.319,9.204-3.509,10.916-8.14l89.02-240.878c1.229-3.322,0.988-7.01-0.659-10.146
			C458.109,91.993,431.853,71.589,396.705,65.534z M373.893,346.642c-17.228-22.326-39.065-35.558-66.207-40.231
			c-9.068-1.562-18.668-2.321-29.347-2.321c-15.266,0-30.442,1.562-45.119,3.073c-2.892,0.298-5.777,0.596-8.65,0.879l-3.751,0.372
			c-13.441,1.338-27.34,2.722-40.759,2.722c-11.691,0-21.821-1.053-30.968-3.217c-14.564-3.445-42.809-21.25-54.83-39.432
			l79.733-215.739c15.615,20.353,34.875,33.063,58.36,38.622c11.056,2.617,23.066,3.89,36.717,3.889
			c14.643,0,29.155-1.443,43.188-2.839l3.785-0.376c2.926-0.288,5.861-0.59,8.806-0.894c14.034-1.443,28.548-2.938,42.519-2.938
			c9.236,0,17.444,0.641,25.091,1.957c25.793,4.443,44.894,18.652,59.746,44.564L373.893,346.642z"/>
	</g>
</g>
</svg>
