<svg width="512" height="512" xmlns="http://www.w3.org/2000/svg">
 <g>
  <title>background</title>
  <rect x="-1" y="-1" width="514" height="514" id="canvas_background" fill="none"/>
 </g>
 <defs>
  <linearGradient y2="0" x2="1" y1="0" x1="0" id="svg_5">
   <stop offset="0" stop-opacity="0.996094" stop-color="#a7f954"/>
   <stop offset="1" stop-opacity="0.992188" stop-color="#009159"/>
  </linearGradient>
 </defs>
 <g>
  <title>Layer 1</title>
  <path d="m213.216797,17.90625l85.570313,0l0,14.398438l30.902344,0l0,-16.414061c0.003906,-15.929688 -12.949219,-28.890626 -28.871094,-28.890626l-89.632813,0c-15.921875,0 -28.875,12.960938 -28.875,28.890626l0,16.414061l30.90625,0l0,-14.398438zm0,0" id="svg_1" fill="url(#svg_5)"/>
  <path d="m401.056641,154.75l-290.109375,0c-7.949219,0 -14.207031,6.78125 -13.566406,14.707031l24.253906,299.90625c1.351563,16.742188 15.316406,29.636719 32.09375,29.636719l204.542969,0c16.777344,0 30.742188,-12.894531 32.09375,-29.640625l24.253906,-299.902344c0.644531,-7.925781 -5.613281,-14.707031 -13.5625,-14.707031zm-219.863281,312.261719c-0.324219,0.019531 -0.648438,0.03125 -0.96875,0.03125c-8.101563,0 -14.902344,-6.308594 -15.40625,-14.503906l-15.199219,-246.207031c-0.523438,-8.519531 5.957031,-15.851563 14.472656,-16.375c8.488281,-0.515625 15.851563,5.949219 16.375,14.472656l15.195313,246.207031c0.527344,8.519531 -5.953125,15.847656 -14.46875,16.375zm90.433594,-15.421875c0,8.53125 -6.917969,15.449219 -15.453125,15.449219s-15.453125,-6.917969 -15.453125,-15.449219l0,-246.210938c0,-8.535156 6.917969,-15.453125 15.453125,-15.453125c8.53125,0 15.453125,6.917969 15.453125,15.453125l0,246.210938zm90.757813,-245.300781l-14.511719,246.207031c-0.480469,8.210938 -7.292969,14.542969 -15.410156,14.542969c-0.304688,0 -0.613281,-0.007813 -0.921875,-0.023438c-8.519531,-0.503906 -15.019531,-7.816406 -14.515625,-16.335938l14.507813,-246.210938c0.5,-8.519531 7.789063,-15.019531 16.332031,-14.515625c8.519531,0.5 15.019531,7.816406 14.519531,16.335938zm0,0" id="svg_2" fill="url(#svg_5)"/>
  <path d="m454.492188,107.0625l-10.148438,-30.421875c-2.675781,-8.019531 -10.183594,-13.429688 -18.640625,-13.429688l-339.410156,0c-8.453125,0 -15.964844,5.410156 -18.636719,13.429688l-10.148438,30.421875c-1.957031,5.867188 0.589844,11.851563 5.34375,14.835938c1.9375,1.214844 4.230469,1.945313 6.75,1.945313l372.796875,0c2.519531,0 4.816406,-0.730469 6.75,-1.949219c4.753906,-2.984375 7.300781,-8.96875 5.34375,-14.832031zm0,0" id="svg_3" fill="url(#svg_5)"/>
 </g>
</svg>