<svg width="438.533" height="438.533" xmlns="http://www.w3.org/2000/svg">
 <defs>
  <linearGradient y2="0" x2="1" y1="0" x1="0" id="svg_22">
   <stop offset="0" stop-opacity="0.992188" stop-color="#ef3b5f"/>
   <stop offset="1" stop-opacity="0.992188" stop-color="#ea0707"/>
  </linearGradient>
 </defs>
 <g>
  <title>background</title>
  <rect x="-1" y="-1" width="440.533" height="440.533" id="canvas_background" fill="none"/>
 </g>
 <g>
  <title>Layer 1</title>
  <g id="svg_1">
   <g id="svg_2">
    <path d="m409.132996,109.203003c-19.608002,-33.591995 -46.204987,-60.189003 -79.798004,-79.795994c-33.598999,-19.606009 -70.276978,-29.407009 -110.061996,-29.407009c-39.780991,0 -76.470001,9.801 -110.063004,29.407c-33.595001,19.604002 -60.192001,46.201002 -79.800001,79.796003c-19.608991,33.597 -29.40999,70.285995 -29.40999,110.063995c0,39.779999 9.804,76.463013 29.407,110.062012c19.607,33.59198 46.204,60.188995 79.799002,79.797974c33.597008,19.605011 70.282997,29.407013 110.063011,29.407013s76.470001,-9.802002 110.065002,-29.407013c33.592987,-19.60199 60.188995,-46.205994 79.794983,-79.797974c19.602997,-33.596008 29.403015,-70.284027 29.403015,-110.062012c0.000977,-39.781998 -9.800018,-76.472 -29.399017,-110.063995zm-55.390991,188.005005c-13.894012,23.790985 -32.735992,42.632996 -56.527008,56.533997c-23.790985,13.894012 -49.770996,20.834015 -77.944992,20.834015c-28.167007,0 -54.149002,-6.940002 -77.943008,-20.834015c-23.790993,-13.901001 -42.632996,-32.743011 -56.526993,-56.533997c-13.897003,-23.791016 -20.843002,-49.772003 -20.843002,-77.940994c0,-28.171005 6.949013,-54.152008 20.843002,-77.943008c13.890999,-23.791008 32.737999,-42.637009 56.526993,-56.529999c23.791016,-13.894997 49.772003,-20.839996 77.943008,-20.839996c28.173004,0 54.154007,6.945 77.944992,20.839996c23.791016,13.893997 42.634003,32.738991 56.527008,56.529999c13.894989,23.791 20.838013,49.772003 20.838013,77.943008c-0.000031,28.168991 -6.943024,54.149979 -20.838013,77.940994z" id="svg_3" fill="url(#svg_22)"/>
    <path d="m219.270004,146.177994c-20.177002,0 -37.401001,7.139008 -51.677994,21.410995c-14.272003,14.277008 -21.411011,31.501007 -21.411011,51.678009c0,20.175003 7.13501,37.402008 21.411011,51.673004c14.276993,14.276978 31.503998,21.415985 51.677994,21.415985c20.179001,0 37.405991,-7.139008 51.67601,-21.415985c14.273987,-14.270996 21.412994,-31.498001 21.412994,-51.673004c0,-20.177002 -7.139008,-37.401001 -21.412994,-51.678009c-14.27002,-14.272995 -31.497009,-21.410995 -51.67601,-21.410995z" id="svg_4" fill="url(#svg_22)"/>
   </g>
  </g>
 </g>
</svg>