<svg id="Capa_1" enable-background="new 0 0 512 512" height="512" viewBox="0 0 512 512" width="512" xmlns="http://www.w3.org/2000/svg"><g><path d="m188.378 15.463-93.311 264.067c-6.903 19.534 7.588 40.024 28.306 40.024h109.449l-35.295 168.206c-4.381 20.88 22.565 33.232 35.524 16.285l167.394-218.901c15.106-19.754 1.021-48.258-23.848-48.258h-87.712l126.211-201.382c9.68-15.444-1.422-35.504-19.649-35.504h-185.205c-9.829 0-18.59 6.196-21.864 15.463z" fill="#f9ef63"/><g fill="#f1d333"><path d="m231.275 506.097c-13.475 13.804-37.931 1.638-33.749-18.337l35.294-168.207h10.404c9.241 0 16.142 8.5 14.245 17.544l-31.612 150.663c-1.587 7.561.937 14.01 5.418 18.337z"/><path d="m274.359.002c-9.828 0-18.595 6.191-21.871 15.463l-93.314 264.065c-6.902 19.532 7.593 40.022 28.309 40.022h-64.108c-20.717 0-35.211-20.49-28.309-40.022l93.314-264.065c3.276-9.272 12.032-15.463 21.86-15.463h64.119z"/></g></g></svg>