<?xml version="1.0" encoding="iso-8859-1"?>
<!-- Generator: Adobe Illustrator 19.0.0, SVG Export Plug-In . SVG Version: 6.00 Build 0)  -->
<svg version="1.1" id="Capa_1" xmlns="http://www.w3.org/2000/svg" xmlns:xlink="http://www.w3.org/1999/xlink" x="0px" y="0px"
	 viewBox="0 0 512 512" style="enable-background:new 0 0 512 512;" xml:space="preserve">
<path style="fill:#787780;" d="M331.017,437c0,41.4-33.6,75-75,75s-75-33.6-75-75c0-8.401,6.599-15,15-15h120
	C324.418,422,331.017,428.599,331.017,437z"/>
<path style="fill:#57555C;" d="M331.017,437c0,41.4-33.6,75-75,75v-90h60C324.418,422,331.017,428.599,331.017,437z"/>
<path style="fill:#D9D9D9;" d="M361.017,392v15c0,24.899-20.099,45-45,45h-120c-24.901,0-45-20.101-45-45v-15l30-32h150L361.017,392
	z"/>
<path style="fill:#C8C6CD;" d="M361.017,392v15c0,24.899-20.099,45-45,45h-60v-92h75L361.017,392z"/>
<polygon style="fill:#E5E5E5;" points="361.017,330 361.017,392 151.017,392 151.017,330 179.217,300 332.817,300 "/>
<polygon style="fill:#D9D9D9;" points="361.017,330 361.017,392 256.017,392 256.017,300 332.817,300 "/>
<path style="fill:#FEDB41;" d="M421.017,165c0,43.5-16.8,84.3-47.1,115.199c-8.101,8.701-12.9,21.301-12.9,31.501V330h-210v-18.3
	c0-10.501-4.799-23.101-13.2-31.501c-37.8-38.699-53.699-92.1-44.099-145.8C105.417,69.6,156.417,17.1,220.617,3.6
	c11.7-2.401,23.699-3.6,35.4-3.6c38.101,0,74.399,12.9,104.099,36.899C398.818,68.399,421.017,115.199,421.017,165z"/>
<path style="fill:#FCBF29;" d="M421.017,165c0,43.5-16.8,84.3-47.1,115.199c-8.101,8.701-12.9,21.301-12.9,31.501V330h-105V0
	c38.101,0,74.399,12.9,104.099,36.899C398.818,68.399,421.017,115.199,421.017,165z"/>
<path style="fill:#FEA832;" d="M256.017,180c8.401,0,15,6.599,15,15c0,8.399-6.599,15-15,15c-6,0-11.4-3.6-13.801-9.3
	c-3.3-7.5-11.999-11.1-19.799-7.8c-7.5,3.3-11.1,11.999-7.8,19.499c5.099,12.001,14.7,20.7,26.4,24.901V330h30v-92.701
	c17.401-6.299,30-22.8,30-42.299c0-24.901-20.099-45-45-45c-8.401,0-15-6.601-15-15c0-8.401,6.599-15,15-15c6,0,11.4,3.6,13.801,9.3
	c3.3,7.5,11.999,11.1,19.799,7.8c7.5-3.301,11.1-12.001,7.8-19.501c-5.099-12.001-14.7-20.7-26.4-24.901V75c0-8.401-6.599-15-15-15
	s-15,6.599-15,15v17.699c-17.401,6.301-30,22.8-30,42.301C211.017,159.899,231.117,180,256.017,180z"/>
<g>
	<path style="fill:#FE9923;" d="M256.017,120V60c8.401,0,15,6.599,15,15v17.699c11.7,4.2,21.301,12.9,26.4,24.901
		c3.3,7.5-0.3,16.199-7.8,19.501c-7.8,3.3-16.5-0.3-19.799-7.8C267.417,123.6,262.018,120,256.017,120z"/>
	<path style="fill:#FE9923;" d="M256.017,210v120h15v-92.701c17.401-6.299,30-22.8,30-42.299c0-24.901-20.099-45-45-45v30
		c8.401,0,15,6.599,15,15C271.017,203.399,264.418,210,256.017,210z"/>
</g>
<g>
</g>
<g>
</g>
<g>
</g>
<g>
</g>
<g>
</g>
<g>
</g>
<g>
</g>
<g>
</g>
<g>
</g>
<g>
</g>
<g>
</g>
<g>
</g>
<g>
</g>
<g>
</g>
<g>
</g>
</svg>
