<svg width="128" height="128" xmlns="http://www.w3.org/2000/svg">

 <g>
  <title>background</title>
  <rect fill="none" id="canvas_background" height="130" width="130" y="-1" x="-1"/>
 </g>
 <g>
  <title>Layer 1</title>
  <ellipse stroke="#000" ry="61.124956" rx="61.249953" id="svg_28" cy="64.036564" cx="63.876179" stroke-width="5" fill="#000000"/>
  <g id="svg_7"/>
  <g id="svg_8"/>
  <g id="svg_9"/>
  <g id="svg_10"/>
  <g id="svg_11"/>
  <g id="svg_12"/>
  <g id="svg_13"/>
  <g id="svg_14"/>
  <g id="svg_15"/>
  <g id="svg_16"/>
  <g id="svg_17"/>
  <g id="svg_18"/>
  <g id="svg_19"/>
  <g id="svg_20"/>
  <g id="svg_21"/>
  <rect stroke="#ffffff" transform="rotate(-78 58.06127929687499,44.9642219543457) " id="svg_29" height="27.350272" width="39.768759" y="31.289087" x="38.176899" stroke-width="5" fill="#ffffff"/>
  <rect stroke="#ffffff" transform="rotate(-69 84.9833984375,49.83052062988281) " id="svg_31" height="27.015422" width="40.345443" y="36.322809" x="64.810679" stroke-width="5" fill="#ffffff"/>
  <g stroke="null" id="svg_1">
   <g stroke="null" id="svg_26">
    <path stroke="#ffffff" fill="#000000" id="svg_22" d="m95.118807,22.527596c-5.364893,-0.938524 -10.892019,-0.174912 -16.256094,0.362449c-5.344313,0.535502 -10.924625,1.19085 -16.21962,-0.082174c-6.234718,-1.498869 -10.178908,-5.649768 -13.087376,-11.27387c-0.801961,2.203683 -1.603716,4.40717 -2.405478,6.611057c-5.245877,14.416493 -10.491547,28.832986 -15.737217,43.249479l-14.163042,38.924279l5.469651,2.053199l12.746007,-35.029431c2.365533,2.563238 5.28602,4.424555 9.035172,5.325815c5.294583,1.272201 10.875506,0.618092 16.219406,0.082386c5.363677,-0.538395 10.891407,-1.301388 16.256301,-0.362653c6.893826,1.205961 11.348131,5.399709 14.535801,11.565107c6.048243,-16.619972 12.09527,-33.240148 18.142696,-49.860536c-3.188281,-6.165603 -7.641371,-10.358731 -14.536206,-11.565107zm0.672341,29.591211c-2.697117,-2.311947 -5.592544,-3.858008 -9.083473,-4.539642c-1.164729,3.19975 -2.329052,6.399508 -3.493375,9.599259c3.491342,0.682057 6.386149,2.22811 9.083878,4.539854c-1.067722,2.934383 -2.135643,5.868978 -3.203158,8.802742c-2.697125,-2.311743 -5.592949,-3.858831 -9.084084,-4.539438c1.067715,-2.934595 2.135643,-5.868978 3.203365,-8.803158c-3.554726,-0.582278 -7.025678,-0.578969 -10.612398,-0.356034c-1.067523,2.934383 -2.13565,5.868978 -3.203166,8.803158c-3.711241,0.30449 -7.409844,0.736911 -11.120886,1.040781c1.067516,-2.934799 2.135444,-5.868978 3.202959,-8.802742c-3.58672,0.223139 -7.057879,0.226864 -10.612604,-0.35583c-1.067722,2.934383 -2.135444,5.868774 -3.203158,8.802742c-3.49073,-0.681022 -6.387372,-2.227906 -9.083885,-4.540057c1.067516,-2.933976 2.135444,-5.868563 3.202959,-8.802538c2.69753,2.312159 5.592743,3.858423 9.084084,4.539854c1.164117,-3.19975 2.328853,-6.399924 3.49297,-9.599674c-3.491135,-0.679987 -6.386761,-2.228526 -9.084084,-4.539438c1.16453,-3.200174 2.328853,-6.40034 3.493176,-9.600098c2.697523,2.312778 5.592743,3.857388 9.083878,4.540057c1.067722,-2.934383 2.135444,-5.868563 3.203166,-8.80253c3.554718,0.582278 7.02629,0.578969 10.612597,0.355415c-1.067516,2.934179 -2.135436,5.868563 -3.203158,8.802742c3.711034,-0.304498 7.409645,-0.736495 11.120886,-1.040781c1.067516,-2.934179 2.135643,-5.868563 3.203166,-8.802946c3.587125,-0.223147 7.057474,-0.226668 10.612398,0.355822c-1.067722,2.934391 -2.135444,5.868563 -3.203166,8.803158c3.491342,0.681846 6.386149,2.227491 9.084084,4.539438c-1.164117,3.199962 -2.328035,6.400128 -3.49297,9.599886z"/>
    <path stroke="#ffffff" fill="#000000" id="svg_23" d="m64.973781,48.263905c-1.164323,3.199962 -2.328647,6.39972 -3.493176,9.599682c3.711241,-0.304702 7.41005,-0.736911 11.121092,-1.041197c1.164323,-3.199546 2.328647,-6.399508 3.49297,-9.599267c-3.711447,0.304498 -7.409851,0.736707 -11.120886,1.040781z"/>
    <path stroke="#ffffff" fill="#000000" id="svg_24" d="m64.973781,48.263905c1.16453,-3.19975 2.328846,-6.399924 3.493169,-9.59947c-3.587737,0.222519 -7.057474,0.226252 -10.61301,-0.355618c-1.164323,3.19975 -2.328647,6.399712 -3.49297,9.59947c3.554932,0.582906 7.025686,0.579385 10.612811,0.355618z"/>
    <path stroke="#ffffff" fill="#000000" id="svg_25" d="m79.587636,37.623653c-1.164323,3.199758 -2.328647,6.399508 -3.49297,9.59947c3.587125,-0.222519 7.057474,-0.226244 10.612604,0.356042c1.164117,-3.199758 2.328647,-6.39972 3.492764,-9.599478c-3.554718,-0.582482 -7.025273,-0.579588 -10.612398,-0.356034z"/>
   </g>
  </g>
 </g>
</svg>